#!OML:ASF F:\VICON\USERDATA\INSTALL\rory3\rory3.ASF
:FULLY-SPECIFIED
:DEGREES
145
root 14.5029 17.7005 0.144431 -2.19603 2.05583 -2.86056
lowerback 9.68955 2.20499 3.01546
upperback 0.674425 3.2821 0.453441
thorax -4.58432 1.56591 -1.6601
lowerneck -20.8183 -7.3823 -12.8358
upperneck 25.8749 -9.1107 9.83753
head 13.257 -4.02214 4.36274
rclavicle 2.74571e-014 1.50082e-014
rhumerus -29.6567 -8.92838 -81.8242
rradius 39.8811
rwrist 0.986724
rhand -14.9658 7.67343
rfingers 7.12502
rthumb 11.1977 -22.0077
lclavicle 2.74571e-014 1.50082e-014
lhumerus -40.6069 13.5524 77.5871
lradius 26.247
lwrist -11.5455
lhand -17.1645 25.4049
lfingers 7.12502
lthumb 9.07661 55.1896
rfemur 10.8717 2.39256 29.9232
rtibia 26.3107
rfoot -13.2026 -4.05861
rtoes -6.04039
lfemur -18.6463 -3.88624 -13.8006
ltibia 12.0009
lfoot 1.0548 -4.81325
ltoes -12.0716
146
root 14.5276 17.706 0.290661 -2.31329 2.01643 -2.64025
lowerback 9.74801 2.23622 2.82632
upperback 0.66757 3.3017 0.381519
thorax -4.62948 1.57779 -1.63468
lowerneck -20.8137 -7.40211 -12.782
upperneck 25.9619 -9.14568 9.76979
head 13.2898 -4.04111 4.32215
rclavicle 4.42855e-014 -2.98177e-015
rhumerus -29.9812 -9.24107 -81.7369
rradius 39.8443
rwrist 1.32894
rhand -14.3526 7.05374
rfingers 7.12502
rthumb 11.7891 -22.5945
lclavicle 4.42855e-014 -2.98177e-015
lhumerus -40.5569 13.4816 77.5963
lradius 26.1109
lwrist -11.4603
lhand -17.3162 24.9381
lfingers 7.12502
lthumb 8.93022 54.7291
rfemur 10.6549 2.34151 29.6634
rtibia 27.8557
rfoot -12.5094 -3.96358
rtoes -6.20256
lfemur -18.11 -3.689 -14.1437
ltibia 11.8843
lfoot 2.25647 -5.90534
ltoes -15.4477
147
root 14.5483 17.7073 0.443927 -2.39767 1.9467 -2.24597
lowerback 9.6572 2.28471 2.37493
upperback 0.697443 3.30961 0.298133
thorax -4.56747 1.59154 -1.46483
lowerneck -20.8169 -7.40387 -13.1071
upperneck 26.0966 -9.15759 10.125
head 13.389 -4.03412 4.52343
rclavicle 9.67833e-015 -4.47266e-015
rhumerus -30.298 -9.46461 -81.6599
rradius 39.709
rwrist 1.55976
rhand -14.2643 7.33821
rfingers 7.12502
rthumb 11.8743 -22.3051
lclavicle 9.67833e-015 -4.47266e-015
lhumerus -40.5864 13.3614 77.6457
lradius 26.1924
lwrist -11.4467
lhand -17.215 24.78
lfingers 7.12502
lthumb 9.02788 54.5669
rfemur 10.2834 2.4432 29.2865
rtibia 29.6538
rfoot -11.7303 -3.97775
rtoes -6.08626
lfemur -17.2414 -3.51425 -14.6205
ltibia 11.4643
lfoot 3.42624 -6.69392
ltoes -17.2215
148
root 14.5682 17.7147 0.599946 -2.55025 1.96343 -1.68719
lowerback 9.60515 2.29486 1.78069
upperback 0.734975 3.24994 0.146585
thorax -4.52546 1.57344 -1.27869
lowerneck -20.7342 -7.38484 -13.5168
upperneck 26.3024 -9.16786 10.6046
head 13.5133 -4.02278 4.79628
rclavicle -8.26199e-016 -5.36719e-015
rhumerus -30.587 -9.6798 -81.6238
rradius 39.4608
rwrist 1.86112
rhand -14.3432 7.97285
rfingers 7.12502
rthumb 11.7981 -21.6748
lclavicle -8.26199e-016 -5.36719e-015
lhumerus -40.7027 13.1348 77.6881
lradius 26.3912
lwrist -11.1838
lhand -17.1134 25.2261
lfingers 7.12502
lthumb 9.1259 55.0087
rfemur 9.96564 2.36859 28.6736
rtibia 31.4583
rfoot -10.7979 -3.92015
rtoes -6.28435
lfemur -16.5714 -2.7111 -15.4786
ltibia 11.2351
lfoot 5.03754 -7.55046
ltoes -15.1308
149
root 14.5882 17.7079 0.752025 -2.78882 2.09998 -1.09839
lowerback 9.67824 2.26605 1.15821
upperback 0.780479 3.13759 -0.0145175
thorax -4.54654 1.52858 -1.08529
lowerneck -20.4328 -7.31763 -13.1408
upperneck 26.1868 -9.09911 10.1848
head 13.3437 -4.01678 4.57423
rclavicle 1.05604e-016 -1.68967e-015
rhumerus -30.8721 -9.81711 -81.6624
rradius 39.2508
rwrist 1.80756
rhand -14.5456 8.36997
rfingers 7.12502
rthumb 11.6029 -21.2888
lclavicle 1.05604e-016 -1.68967e-015
lhumerus -40.7561 13.0343 77.6586
lradius 26.4343
lwrist -11.0719
lhand -17.0199 25.86
lfingers 7.12502
lthumb 9.21617 55.6386
rfemur 9.6416 2.06178 27.9663
rtibia 33.3918
rfoot -9.69137 -3.75697
rtoes -5.95149
lfemur -15.929 -1.85458 -16.4083
ltibia 11.1331
lfoot 5.81684 -8.21327
ltoes -13.1946
150
root 14.6063 17.7437 0.90704 -2.98474 2.34781 -0.450995
lowerback 9.7239 2.23005 0.471864
upperback 0.830076 3.00826 -0.167732
thorax -4.55038 1.47671 -0.843884
lowerneck -20.137 -7.28365 -12.7818
upperneck 25.9503 -9.04253 9.70917
head 13.1271 -4.02434 4.32867
rclavicle 1.14053e-014 -6.65929e-015
rhumerus -31.2064 -10.0185 -81.6643
rradius 38.8801
rwrist 1.34751
rhand -15.2034 8.84606
rfingers 7.12502
rthumb 10.9686 -20.8474
lclavicle 1.14053e-014 -6.65929e-015
lhumerus -40.6212 13.3174 77.4878
lradius 26.1325
lwrist -11.5871
lhand -17.0864 25.9586
lfingers 7.12502
lthumb 9.15198 55.74
rfemur 9.21408 1.61434 27.1539
rtibia 35.3546
rfoot -8.33969 -3.71
rtoes -5.05667
lfemur -15.304 -0.920846 -17.4452
ltibia 11.2138
lfoot 5.47395 -8.81195
ltoes -14.0612
151
root 14.6237 17.7643 1.05743 -3.20389 2.69697 0.0751021
lowerback 9.83457 2.17105 -0.093557
upperback 0.896024 2.86219 -0.294854
thorax -4.56669 1.41416 -0.642766
lowerneck -20.2294 -7.34576 -13.1057
upperneck 26.1571 -9.13197 10.0417
head 13.2835 -4.05192 4.50559
rclavicle -3.4017e-014 1.03368e-014
rhumerus -31.5083 -10.605 -81.5193
rradius 38.7726
rwrist 2.46985
rhand -15.0192 8.02557
rfingers 7.12502
rthumb 11.1462 -21.6584
lclavicle -3.4017e-014 1.03368e-014
lhumerus -40.4142 13.6387 77.2706
lradius 25.8364
lwrist -12.1873
lhand -17.1412 25.6579
lfingers 7.12502
lthumb 9.0991 55.4416
rfemur 8.64748 1.08783 26.5123
rtibia 37.5152
rfoot -6.68376 -3.81094
rtoes -3.69752
lfemur -14.5601 -0.21788 -18.2887
ltibia 11.2218
lfoot 4.91786 -9.61768
ltoes -14.3281
152
root 14.6437 17.7769 1.2015 -3.31314 3.07719 0.509722
lowerback 9.90267 2.06685 -0.516862
upperback 0.828222 2.67127 -0.406821
thorax -4.691 1.3265 -0.50052
lowerneck -20.0738 -7.36825 -13.9141
upperneck 26.481 -9.21004 10.9034
head 13.4992 -4.06636 4.99521
rclavicle -4.71648e-014 2.18663e-015
rhumerus -31.9231 -11.0092 -81.3786
rradius 38.2472
rwrist 2.86087
rhand -15.0188 8.37773
rfingers 7.12502
rthumb 11.1466 -21.3062
lclavicle -4.71648e-014 2.18663e-015
lhumerus -40.4793 13.7429 77.1283
lradius 25.7898
lwrist -12.2935
lhand -16.8047 25.7882
lfingers 7.12502
lthumb 9.42383 55.5575
rfemur 7.83217 0.435545 25.8942
rtibia 39.7297
rfoot -4.50416 -3.59273
rtoes -1.31838
lfemur -13.9552 0.12311 -18.9429
ltibia 11.3208
lfoot 4.60629 -10.8025
ltoes -13.2021
153
root 14.6666 17.7906 1.34458 -3.25952 3.42642 1.23934
lowerback 9.78618 1.97311 -1.16989
upperback 0.731209 2.46404 -0.64564
thorax -4.74485 1.23525 -0.352091
lowerneck -19.8774 -7.36156 -14.2709
upperneck 26.7328 -9.24609 11.2679
head 13.6141 -4.08144 5.21386
rclavicle 7.30844e-015 1.16289e-014
rhumerus -32.2538 -11.3766 -81.3474
rradius 37.4343
rwrist 2.5635
rhand -14.784 8.70957
rfingers 7.12502
rthumb 11.3731 -20.962
lclavicle 7.30844e-015 1.16289e-014
lhumerus -40.562 13.661 77.0194
lradius 25.8386
lwrist -12.1095
lhand -16.2064 26.1854
lfingers 7.12502
lthumb 10.001 55.9278
rfemur 6.70119 -0.392096 24.8049
rtibia 42.0436
rfoot -1.93192 -3.24473
rtoes 1.08118
lfemur -13.316 0.255616 -19.8973
ltibia 11.1431
lfoot 4.56131 -11.8624
ltoes -12.9032
154
root 14.6849 17.8089 1.48662 -3.36774 3.76628 1.90689
lowerback 9.84482 1.89524 -1.79468
upperback 0.764228 2.2809 -0.850693
thorax -4.75845 1.15552 -0.191077
lowerneck -19.9714 -7.37087 -14.2325
upperneck 26.9606 -9.24918 11.1698
head 13.7223 -4.08965 5.17432
rclavicle -1.46635e-014 1.19271e-014
rhumerus -32.406 -11.7958 -81.3211
rradius 36.7136
rwrist 2.41422
rhand -14.8131 8.92291
rfingers 7.12502
rthumb 11.345 -20.7502
lclavicle -1.46635e-014 1.19271e-014
lhumerus -40.4261 13.9186 76.79
lradius 25.7075
lwrist -12.3796
lhand -16.1035 25.9094
lfingers 7.12502
lthumb 10.1003 55.647
rfemur 5.67783 -1.20009 23.8043
rtibia 44.3
rfoot 0.588066 -3.08737
rtoes 3.34016
lfemur -12.5125 0.581888 -20.7966
ltibia 10.7712
lfoot 4.64055 -12.5176
ltoes -12.149
155
root 14.7026 17.8293 1.62243 -3.599 4.1379 2.12593
lowerback 10.0462 1.75975 -1.98092
upperback 0.863697 2.0745 -0.886886
thorax -4.76973 1.05656 -0.0999077
lowerneck -20.1041 -7.38478 -14.2826
upperneck 27.125 -9.2144 11.0689
head 13.8114 -4.0895 5.15279
rclavicle 9.12856e-015 -1.04362e-014
rhumerus -32.4817 -12.2002 -81.2403
rradius 36.1655
rwrist 2.63516
rhand -14.9789 8.98322
rfingers 7.12502
rthumb 11.1851 -20.6986
lclavicle 9.12856e-015 -1.04362e-014
lhumerus -40.228 14.0394 76.7745
lradius 25.6755
lwrist -12.4299
lhand -16.5881 25.3467
lfingers 7.12502
lthumb 9.63282 55.1065
rfemur 4.7581 -1.98481 23.3532
rtibia 46.4067
rfoot 3.08349 -3.08259
rtoes 5.69068
lfemur -11.6404 0.97125 -21.2
ltibia 10.1995
lfoot 4.80753 -12.9059
ltoes -10.4574
156
root 14.7247 17.8443 1.75876 -3.75664 4.50045 2.43527
lowerback 10.1205 1.61316 -2.16058
upperback 0.934221 1.85367 -0.98998
thorax -4.73648 0.949718 -0.0759259
lowerneck -20.0332 -7.35108 -14.3316
upperneck 27.1234 -9.1457 11.0331
head 13.7851 -4.07174 5.16068
rclavicle -1.48467e-014 1.23246e-014
rhumerus -32.6851 -12.6647 -81.1623
rradius 35.7144
rwrist 3.04883
rhand -14.8285 8.99563
rfingers 7.12502
rthumb 11.3302 -20.6783
lclavicle -1.48467e-014 1.23246e-014
lhumerus -40.0396 13.7806 76.9052
lradius 25.764
lwrist -12.2091
lhand -17.0043 25.3398
lfingers 7.12502
lthumb 9.23124 55.1177
rfemur 3.86663 -2.82097 22.7273
rtibia 48.3736
rfoot 5.40632 -2.91145
rtoes 8.19853
lfemur -10.7761 0.594744 -21.5707
ltibia 9.66693
lfoot 4.98062 -12.7369
ltoes -9.01662
157
root 14.7488 17.8588 1.90191 -3.88942 4.7324 2.96418
lowerback 10.0476 1.5495 -2.53468
upperback 1.03394 1.72384 -1.16026
thorax -4.59525 0.890062 -0.0208359
lowerneck -20.0385 -7.32376 -14.2963
upperneck 27.1921 -9.09335 10.9428
head 13.7991 -4.05708 5.13007
rclavicle -3.69615e-015 -2.0276e-014
rhumerus -32.9929 -13.1303 -81.0317
rradius 35.364
rwrist 3.64148
rhand -14.6563 8.93502
rfingers 7.12502
rthumb 11.4962 -20.7297
lclavicle -3.69615e-015 -2.0276e-014
lhumerus -39.6637 13.5403 77.0091
lradius 25.657
lwrist -11.9844
lhand -17.0481 25.5319
lfingers 7.12502
lthumb 9.18897 55.3117
rfemur 3.02219 -3.61047 21.8169
rtibia 50.2821
rfoot 7.77259 -2.68141
rtoes 11.4737
lfemur -9.73445 0.354026 -22.2104
ltibia 9.1123
lfoot 5.00825 -12.9466
ltoes -9.30662
